<?xml version="1.0" standalone="yes"?>

<svg version="1.1" viewBox="0.0 0.0 100.0 100.0" fill="none" stroke="none" stroke-linecap="square" stroke-miterlimit="10" xmlns="http://www.w3.org/2000/svg" xmlns:xlink="http://www.w3.org/1999/xlink"><clipPath id="p.0"><path d="m0 0l100.0 0l0 100.0l-100.0 0l0 -100.0z" clip-rule="nonzero"></path></clipPath><g clip-path="url(#p.0)"><path fill="#000000" fill-opacity="0.0" d="m0 0l100.0 0l0 100.0l-100.0 0z" fill-rule="nonzero"></path><path fill="#000000" fill-opacity="0.0" d="m0.7230606 50.00226l0 0c0 -27.144577 22.061434 -49.149605 49.27559 -49.149605l0 0c13.068699 0 25.602142 5.1782475 34.84311 14.395586c9.240959 9.217339 14.43248 21.718733 14.43248 34.75402l0 0c0 27.144577 -22.061432 49.149605 -49.27559 49.149605l0 0c-27.214155 0 -49.27559 -22.005028 -49.27559 -49.149605z" fill-rule="nonzero"></path><path stroke="#02b3e4" stroke-width="1.0" stroke-linejoin="round" stroke-linecap="butt" d="m0.7230606 50.00226l0 0c0 -27.144577 22.061434 -49.149605 49.27559 -49.149605l0 0c13.068699 0 25.602142 5.1782475 34.84311 14.395586c9.240959 9.217339 14.43248 21.718733 14.43248 34.75402l0 0c0 27.144577 -22.061432 49.149605 -49.27559 49.149605l0 0c-27.214155 0 -49.27559 -22.005028 -49.27559 -49.149605z" fill-rule="nonzero"></path><path fill="#000000" fill-opacity="0.0" d="m10.057051 21.062014l79.874016 0l0 57.889763l-79.874016 0z" fill-rule="nonzero"></path><path fill="#02b3e4" d="m34.051754 32.882515q6.46875 0 8.796875 2.625q2.328125 2.625 2.328125 5.9375q0 2.78125 -1.375 4.8125q-1.359375 2.03125 -3.828125 3.046875l0 0.09375q3.234375 0.6875 4.953125 2.9375q1.71875 2.25 1.71875 5.484375q0 4.28125 -2.984375 7.171875q-2.984375 2.875 -7.46875 2.875l-17.078127 0l0 -34.984375l14.937502 0zm-0.75 15.03125q3.5 0 5.359375 -1.296875q1.859375 -1.3125 1.859375 -4.28125q0 -2.765625 -1.5625 -4.140625q-1.546875 -1.390625 -5.609375 -1.390625l-9.593752 0l0 11.109375l9.546877 0zm2.296875 16.03125q2.84375 0 4.609375 -1.6875q1.78125 -1.6875 1.78125 -4.578125q0 -2.953125 -2.015625 -4.390625q-2.0 -1.453125 -5.765625 -1.453125l-10.453127 0l0 12.109375l11.843752 0zm32.13641 -31.890625q5.8125 0 9.718758 3.015625q3.921875 3.015625 4.6875 8.34375l-4.640625 0q-0.765625 -3.59375 -3.359375 -5.515625q-2.5937576 -1.921875 -6.4531326 -1.921875q-5.546871 0 -8.703121 3.921875q-3.140625 3.921875 -3.140625 10.234375q0 6.703125 3.078125 10.671875q3.09375 3.96875 8.812496 3.96875q4.28125 0 7.0156326 -2.703125q2.75 -2.71875 3.09375 -7.390625l4.65625 0q-0.765625 6.796875 -4.734375 10.421875q-3.9531326 3.609375 -10.406258 3.609375q-7.515621 0 -11.843746 -4.96875q-4.328125 -4.984375 -4.328125 -13.265625q0 -8.15625 4.46875 -13.28125q4.46875 -5.140625 12.078121 -5.140625z" fill-rule="nonzero"></path></g></svg>

